<?xml version="1.0" encoding="UTF-8"?>
<!DOCTYPE svg PUBLIC "-//W3C//DTD SVG 1.1//EN" "http://www.w3.org/Graphics/SVG/1.1/DTD/svg11.dtd">
<svg xmlns="http://www.w3.org/2000/svg" version="1.1" width="1248px" height="629px" style="shape-rendering:geometricPrecision; text-rendering:geometricPrecision; image-rendering:optimizeQuality; fill-rule:evenodd; clip-rule:evenodd" xmlns:xlink="http://www.w3.org/1999/xlink">
<g><path style="opacity:1" fill="#000000" d="M -0.5,-0.5 C 88.8333,-0.5 178.167,-0.5 267.5,-0.5C 267.5,209.167 267.5,418.833 267.5,628.5C 178.167,628.5 88.8333,628.5 -0.5,628.5C -0.5,418.833 -0.5,209.167 -0.5,-0.5 Z"/></g>
<g><path style="opacity:1" fill="#1a1a1a" d="M 267.5,-0.5 C 495.167,-0.5 722.833,-0.5 950.5,-0.5C 950.5,209.167 950.5,418.833 950.5,628.5C 722.833,628.5 495.167,628.5 267.5,628.5C 267.5,418.833 267.5,209.167 267.5,-0.5 Z"/></g>
<g><path style="opacity:1" fill="#000000" d="M 950.5,-0.5 C 1049.5,-0.5 1148.5,-0.5 1247.5,-0.5C 1247.5,209.167 1247.5,418.833 1247.5,628.5C 1148.5,628.5 1049.5,628.5 950.5,628.5C 950.5,418.833 950.5,209.167 950.5,-0.5 Z"/></g>
<g><path style="opacity:1" fill="#c8cacd" d="M 592.5,12.5 C 645.79,9.52357 689.956,27.8569 725,67.5C 763.36,118.597 769.027,173.264 742,231.5C 717.358,276.591 679.525,303.091 628.5,311C 560.173,317.09 509.006,290.59 475,231.5C 447.973,173.264 453.64,118.597 492,67.5C 518.533,36.4733 552.033,18.14 592.5,12.5 Z"/></g>
<g><path style="opacity:1" fill="#1a1a1a" d="M 596.5,14.5 C 647.498,12.4303 689.665,30.4303 723,68.5C 756.789,112.772 764.789,161.439 747,214.5C 722.935,271.974 679.769,303.808 617.5,310C 552.802,311.082 505.302,283.248 475,226.5C 451.115,170.051 457.448,117.384 494,68.5C 520.985,36.9234 555.152,18.9234 596.5,14.5 Z"/></g>
<g><path style="opacity:1" fill="#f7f7f5" d="M 494.5,134.5 C 502.384,132.526 507.884,135.193 511,142.5C 511.667,148.167 511.667,153.833 511,159.5C 508.118,167.192 502.618,170.026 494.5,168C 491.272,166.437 489.105,163.937 488,160.5C 487.333,154.167 487.333,147.833 488,141.5C 489.694,138.642 491.861,136.309 494.5,134.5 Z"/></g>
<g><path style="opacity:1" fill="#f5f5f3" d="M 538.5,145.5 C 538.587,150.537 538.254,155.537 537.5,160.5C 536.857,163.988 534.857,166.488 531.5,168C 523.079,170.541 517.579,167.708 515,159.5C 514.333,154.167 514.333,148.833 515,143.5C 519.42,134.176 526.254,132.01 535.5,137C 537.497,139.492 538.497,142.325 538.5,145.5 Z"/></g>
<g><path style="opacity:1" fill="#f3f2ee" d="M 563.5,134.5 C 572.165,132.906 577.665,136.239 580,144.5C 581.092,151.502 580.092,158.168 577,164.5C 572.071,168.68 566.571,169.513 560.5,167C 558.106,165.048 556.606,162.548 556,159.5C 555.333,153.833 555.333,148.167 556,142.5C 558.028,139.308 560.528,136.641 563.5,134.5 Z"/></g>
<g><path style="opacity:1" fill="#f7f7f5" d="M 583.5,157.5 C 583.392,152.13 583.725,146.797 584.5,141.5C 585.614,138.551 587.614,136.385 590.5,135C 598.244,132.903 603.744,135.403 607,142.5C 608.113,149.715 607.446,156.715 605,163.5C 598.333,170.167 591.667,170.167 585,163.5C 583.872,161.655 583.372,159.655 583.5,157.5 Z"/></g>
<g><path style="opacity:1" fill="#f5f5f3" d="M 647.5,145.5 C 647.587,150.537 647.254,155.537 646.5,160.5C 645.857,163.988 643.857,166.488 640.5,168C 632.079,170.541 626.579,167.708 624,159.5C 623.333,154.167 623.333,148.833 624,143.5C 628.42,134.176 635.254,132.01 644.5,137C 646.497,139.492 647.497,142.325 647.5,145.5 Z"/></g>
<g><path style="opacity:1" fill="#f7f6f0" d="M 663.5,134.5 C 665.5,134.5 667.5,134.5 669.5,134.5C 669.5,145.833 669.5,157.167 669.5,168.5C 666.833,168.5 664.167,168.5 661.5,168.5C 661.666,160.16 661.5,151.827 661,143.5C 658.993,144.669 656.827,145.335 654.5,145.5C 654.5,143.167 654.5,140.833 654.5,138.5C 657.912,137.958 660.912,136.625 663.5,134.5 Z"/></g>
<g><path style="opacity:1" fill="#211e23" d="M 495.5,156.5 C 495.283,151.77 495.617,147.103 496.5,142.5C 499.048,139.674 501.215,140.007 503,143.5C 503.667,148.833 503.667,154.167 503,159.5C 498.631,163.939 496.131,162.939 495.5,156.5 Z"/></g>
<g><path style="opacity:1" fill="#232025" d="M 525.5,140.5 C 528.292,140.452 530.125,141.785 531,144.5C 531.952,150.362 531.285,156.028 529,161.5C 527.062,162.86 525.396,162.527 524,160.5C 521.554,153.458 522.054,146.792 525.5,140.5 Z"/></g>
<g><path style="opacity:1" fill="#221d1f" d="M 566.5,140.5 C 568.911,140.137 570.411,141.137 571,143.5C 571.667,148.833 571.667,154.167 571,159.5C 568.334,163.522 566.001,163.189 564,158.5C 563.333,153.5 563.333,148.5 564,143.5C 564.698,142.309 565.531,141.309 566.5,140.5 Z"/></g>
<g><path style="opacity:1" fill="#1e1a21" d="M 592.5,160.5 C 591.167,154.5 591.167,148.5 592.5,142.5C 594.198,139.876 596.031,139.876 598,142.5C 599.942,148.485 599.942,154.485 598,160.5C 596.031,163.124 594.198,163.124 592.5,160.5 Z"/></g>
<g><path style="opacity:1" fill="#232025" d="M 634.5,140.5 C 637.292,140.452 639.125,141.785 640,144.5C 640.952,150.362 640.285,156.028 638,161.5C 636.062,162.86 634.396,162.527 633,160.5C 630.554,153.458 631.054,146.792 634.5,140.5 Z"/></g>
<g><path style="opacity:1" fill="#dd3d3c" d="M 694.5,142.5 C 699.849,141.461 704.349,142.795 708,146.5C 709.157,150.346 707.991,153.179 704.5,155C 709.767,159.206 709.767,163.54 704.5,168C 700.833,168.667 697.167,168.667 693.5,168C 692.24,166.186 692.24,164.353 693.5,162.5C 696.421,163.407 699.421,163.74 702.5,163.5C 702.714,161.856 702.38,160.356 701.5,159C 699.527,158.505 697.527,158.338 695.5,158.5C 695.5,156.833 695.5,155.167 695.5,153.5C 697.5,153.167 699.5,152.833 701.5,152.5C 701.5,150.833 701.5,149.167 701.5,147.5C 699.08,147.292 696.747,147.626 694.5,148.5C 693.306,146.484 693.306,144.484 694.5,142.5 Z"/></g>
<g><path style="opacity:1" fill="#e43f3e" d="M 722.5,142.5 C 724.5,142.5 726.5,142.5 728.5,142.5C 728.5,148.167 728.5,153.833 728.5,159.5C 729.5,159.5 730.5,159.5 731.5,159.5C 731.5,160.833 731.5,162.167 731.5,163.5C 730.5,163.5 729.5,163.5 728.5,163.5C 728.5,165.167 728.5,166.833 728.5,168.5C 726.5,168.5 724.5,168.5 722.5,168.5C 722.5,166.833 722.5,165.167 722.5,163.5C 718.833,163.5 715.167,163.5 711.5,163.5C 711.34,161.801 711.506,160.134 712,158.5C 716.256,153.651 719.756,148.318 722.5,142.5 Z"/></g>
<g><path style="opacity:1" fill="#edebe8" d="M 544.5,144.5 C 549.993,143.178 552.493,145.178 552,150.5C 549.847,152.444 547.347,152.944 544.5,152C 541.914,149.506 541.914,147.006 544.5,144.5 Z"/></g>
<g><path style="opacity:1" fill="#d58d52" d="M 592.5,142.5 C 591.167,148.5 591.167,154.5 592.5,160.5C 591.883,160.389 591.383,160.056 591,159.5C 590.333,154.167 590.333,148.833 591,143.5C 591.383,142.944 591.883,142.611 592.5,142.5 Z"/></g>
<g><path style="opacity:1" fill="#f4efe6" d="M 612.5,144.5 C 617.993,143.178 620.493,145.178 620,150.5C 612.642,154.527 610.142,152.527 612.5,144.5 Z"/></g>
<g><path style="opacity:1" fill="#e0ab61" d="M 538.5,145.5 C 539.647,149.646 539.814,153.98 539,158.5C 538.722,159.416 538.222,160.082 537.5,160.5C 538.254,155.537 538.587,150.537 538.5,145.5 Z"/></g>
<g><path style="opacity:1" fill="#e0ab61" d="M 647.5,145.5 C 648.647,149.646 648.814,153.98 648,158.5C 647.722,159.416 647.222,160.082 646.5,160.5C 647.254,155.537 647.587,150.537 647.5,145.5 Z"/></g>
<g><path style="opacity:1" fill="#d89e45" d="M 496.5,142.5 C 495.617,147.103 495.283,151.77 495.5,156.5C 494.353,152.354 494.186,148.02 495,143.5C 495.383,142.944 495.883,142.611 496.5,142.5 Z"/></g>
<g><path style="opacity:1" fill="#65ade1" d="M 584.5,141.5 C 583.725,146.797 583.392,152.13 583.5,157.5C 582.837,155.527 582.504,153.361 582.5,151C 582.328,147.523 582.994,144.356 584.5,141.5 Z"/></g>
<g><path style="opacity:1" fill="#301c1e" d="M 721.5,152.5 C 722.468,154.607 722.802,156.941 722.5,159.5C 720.801,159.66 719.134,159.494 717.5,159C 719.058,156.948 720.392,154.781 721.5,152.5 Z"/></g>
<g><path style="opacity:1" fill="#edeae8" d="M 544.5,160.5 C 549.993,159.178 552.493,161.178 552,166.5C 549.847,168.444 547.347,168.944 544.5,168C 541.914,165.506 541.914,163.006 544.5,160.5 Z"/></g>
<g><path style="opacity:1" fill="#f4eee6" d="M 612.5,160.5 C 617.993,159.178 620.493,161.178 620,166.5C 612.642,170.527 610.142,168.527 612.5,160.5 Z"/></g>
<g><path style="opacity:1" fill="#e63f3e" d="M 681.5,160.5 C 688.004,160.138 689.671,162.638 686.5,168C 679.701,168.717 678.034,166.217 681.5,160.5 Z"/></g>
<g><path style="opacity:1" fill="#eddcbe" d="M 574.5,186.5 C 576.337,186.639 576.67,187.306 575.5,188.5C 574.702,188.043 574.369,187.376 574.5,186.5 Z"/></g>
<g><path style="opacity:1" fill="#e3e8e4" d="M 512.5,189.5 C 514.199,189.34 515.866,189.506 517.5,190C 516.584,190.374 515.75,190.874 515,191.5C 514.798,193.256 514.298,194.922 513.5,196.5C 512.526,194.257 512.192,191.924 512.5,189.5 Z"/></g>
<g><path style="opacity:1" fill="#f5e6c3" d="M 574.5,189.5 C 575.725,190.152 576.392,191.319 576.5,193C 576.167,194.167 575.833,195.333 575.5,196.5C 574.526,194.257 574.192,191.924 574.5,189.5 Z"/></g>
<g><path style="opacity:1" fill="#e1e0d4" d="M 561.5,189.5 C 565.315,190.105 568.982,190.105 572.5,189.5C 572.808,191.924 572.474,194.257 571.5,196.5C 570.167,189.833 568.833,189.833 567.5,196.5C 565.907,189.951 564.907,189.951 564.5,196.5C 563.5,196.5 562.5,196.5 561.5,196.5C 561.5,194.167 561.5,191.833 561.5,189.5 Z"/></g>
<g><path style="opacity:1" fill="#dedacf" d="M 577.5,189.5 C 579.833,189.5 582.167,189.5 584.5,189.5C 584.808,191.924 584.474,194.257 583.5,196.5C 581.907,189.951 580.907,189.951 580.5,196.5C 579.5,196.5 578.5,196.5 577.5,196.5C 577.5,194.167 577.5,191.833 577.5,189.5 Z"/></g>
<g><path style="opacity:1" fill="#e7ece0" d="M 504.5,186.5 C 506.048,186.821 506.715,187.821 506.5,189.5C 511.378,189.535 512.711,191.868 510.5,196.5C 509.548,194.955 509.215,193.288 509.5,191.5C 508.5,191.5 507.5,191.5 506.5,191.5C 506.785,193.288 506.452,194.955 505.5,196.5C 504.513,193.232 504.18,189.898 504.5,186.5 Z"/></g>
<g><path style="opacity:1" fill="#dbdfe0" d="M 630.5,189.5 C 631.978,189.238 633.311,189.571 634.5,190.5C 634.08,192.326 634.08,194.326 634.5,196.5C 632.712,196.785 631.045,196.452 629.5,195.5C 630.603,195.002 631.603,194.669 632.5,194.5C 629.807,193.468 629.14,191.802 630.5,189.5 Z"/></g>
<g><path style="opacity:1" fill="#cdc6bf" d="M 636.5,189.5 C 639.044,189.104 641.211,189.771 643,191.5C 644.884,189.424 647.051,189.09 649.5,190.5C 648.311,191.429 646.978,191.762 645.5,191.5C 645.5,192.5 645.5,193.5 645.5,194.5C 646.978,194.238 648.311,194.571 649.5,195.5C 647.051,196.91 644.884,196.576 643,194.5C 636.703,198.201 634.536,196.534 636.5,189.5 Z"/></g>
<g><path style="opacity:1" fill="#1e4dd5" d="M 456.5,328.5 C 478.956,328.123 489.122,339.123 487,361.5C 481.899,375.921 471.733,382.088 456.5,380C 441.427,374.364 435.26,363.53 438,347.5C 441.017,337.984 447.184,331.651 456.5,328.5 Z"/></g>
<g><path style="opacity:1" fill="#23c35d" d="M 602.5,328.5 C 618.338,326.991 628.838,333.658 634,348.5C 636.011,364.317 629.511,374.817 614.5,380C 598.201,382.099 587.701,375.266 583,359.5C 581.407,344.01 587.907,333.676 602.5,328.5 Z"/></g>
<g><path style="opacity:1" fill="#ec4444" d="M 748.5,328.5 C 770.977,328.143 781.144,339.143 779,361.5C 773.899,375.921 763.733,382.088 748.5,380C 733.427,374.364 727.26,363.53 730,347.5C 733.017,337.984 739.184,331.651 748.5,328.5 Z"/></g>
<g><path style="opacity:1" fill="#f2f5fc" d="M 455.5,345.5 C 460.978,347.737 465.978,350.737 470.5,354.5C 467.891,357.144 464.891,359.311 461.5,361C 459.35,362.411 457.016,363.245 454.5,363.5C 454.211,357.409 454.545,351.409 455.5,345.5 Z"/></g>
<g><path style="opacity:1" fill="#effbf3" d="M 602.5,347.5 C 606.5,347.5 610.5,347.5 614.5,347.5C 614.617,349.484 613.95,351.15 612.5,352.5C 613.167,353.5 613.833,354.5 614.5,355.5C 610.893,356.489 607.226,356.823 603.5,356.5C 603.799,358.604 603.466,360.604 602.5,362.5C 601.221,357.449 601.221,352.449 602.5,347.5 Z"/></g>
<g><path style="opacity:1" fill="#fee6e5" d="M 750.5,347.5 C 754.007,346.994 757.174,347.66 760,349.5C 760.308,348.692 760.808,348.025 761.5,347.5C 762.466,349.396 762.799,351.396 762.5,353.5C 760.396,353.799 758.396,353.466 756.5,352.5C 760.375,351.514 760.375,350.347 756.5,349C 751.968,348.1 749.302,349.934 748.5,354.5C 749.983,360.074 753.316,361.574 758.5,359C 759.46,357.581 760.293,356.081 761,354.5C 761.92,357.308 761.087,359.475 758.5,361C 747.105,361.803 744.439,357.303 750.5,347.5 Z"/></g>
<g><path style="opacity:1" fill="#c6e1da" d="M 580.5,410.5 C 581.794,412.048 582.461,414.048 582.5,416.5C 582.167,418.5 581.833,420.5 581.5,422.5C 580.509,418.555 580.176,414.555 580.5,410.5 Z"/></g>
<g><path style="opacity:1" fill="#e9c370" d="M 612.5,410.5 C 614.337,410.639 614.67,411.306 613.5,412.5C 612.702,412.043 612.369,411.376 612.5,410.5 Z"/></g>
<g><path style="opacity:1" fill="#e8d3aa" d="M 768.5,410.5 C 769.794,412.048 770.461,414.048 770.5,416.5C 770.167,418.5 769.833,420.5 769.5,422.5C 768.509,418.555 768.176,414.555 768.5,410.5 Z"/></g>
<g><path style="opacity:1" fill="#edd9b5" d="M 453.5,421.5 C 451.735,422.461 449.735,422.795 447.5,422.5C 447.177,418.774 447.511,415.107 448.5,411.5C 449.487,414.768 449.82,418.102 449.5,421.5C 450.833,421.5 452.167,421.5 453.5,421.5 Z"/></g>
<g><path style="opacity:1" fill="#dbdbd4" d="M 462.5,414.5 C 469.342,412.743 471.675,415.076 469.5,421.5C 467.929,422.309 466.262,422.643 464.5,422.5C 464.762,423.978 464.429,425.311 463.5,426.5C 462.509,422.555 462.176,418.555 462.5,414.5 Z"/></g>
<g><path style="opacity:1" fill="#e6dec8" d="M 472.5,414.5 C 474.288,414.215 475.955,414.548 477.5,415.5C 476.167,415.833 474.833,416.167 473.5,416.5C 474.32,418.111 475.654,418.778 477.5,418.5C 477.143,422.395 475.143,423.395 471.5,421.5C 472.687,421.446 474.02,421.113 475.5,420.5C 473.947,419.561 472.613,418.394 471.5,417C 471.743,416.098 472.077,415.265 472.5,414.5 Z"/></g>
<g><path style="opacity:1" fill="#c4e0e6" d="M 606.5,412.5 C 607.931,413.082 609.264,413.915 610.5,415C 607.833,417.333 607.833,419.667 610.5,422C 609.216,422.684 608.049,422.517 607,421.5C 606.122,418.356 605.955,415.356 606.5,412.5 Z"/></g>
<g><path style="opacity:1" fill="#daa864" d="M 612.5,414.5 C 613.748,415.334 614.415,416.667 614.5,418.5C 614.167,419.833 613.833,421.167 613.5,422.5C 612.52,419.914 612.187,417.247 612.5,414.5 Z"/></g>
<g><path style="opacity:1" fill="#e7e1cf" d="M 740.5,412.5 C 741.931,413.082 743.264,413.915 744.5,415C 741.833,417.333 741.833,419.667 744.5,422C 743.207,422.49 741.873,422.657 740.5,422.5C 740.163,418.989 740.163,415.656 740.5,412.5 Z"/></g>
<g><path style="opacity:1" fill="#e1d2bc" d="M 753.5,415.5 C 754.023,421.487 751.523,423.487 746,421.5C 744.489,414.742 746.989,412.742 753.5,415.5 Z"/></g>
<g><path style="opacity:1" fill="#e4d9b3" d="M 759.5,421.5 C 758.432,422.434 757.099,422.768 755.5,422.5C 756.01,419.612 755.344,417.279 753.5,415.5C 754.452,414.548 755.452,413.548 756.5,412.5C 757.354,413.522 758.354,414.355 759.5,415C 758.376,415.839 757.709,417.006 757.5,418.5C 757.64,420.03 758.307,421.03 759.5,421.5 Z"/></g>
<g><path style="opacity:1" fill="#231b24" d="M 465.5,415.5 C 467.484,415.484 468.484,416.484 468.5,418.5C 467.167,422.5 465.833,422.5 464.5,418.5C 464.685,417.416 465.018,416.416 465.5,415.5 Z"/></g>
<g><path style="opacity:1" fill="#ccdfdf" d="M 615.5,414.5 C 619.329,414.937 622.995,415.104 626.5,415C 627.777,417.466 627.777,419.966 626.5,422.5C 625.041,413.39 623.374,413.39 621.5,422.5C 620.041,413.39 618.374,413.39 616.5,422.5C 615.52,419.914 615.187,417.247 615.5,414.5 Z"/></g>
<g><path style="opacity:1" fill="#1e1a25" d="M 748.5,415.5 C 750.484,415.484 751.484,416.484 751.5,418.5C 750.167,422.5 748.833,422.5 747.5,418.5C 747.685,417.416 748.018,416.416 748.5,415.5 Z"/></g>
<g><path style="opacity:1" fill="#e8e2d3" d="M 630.5,414.5 C 634.241,413.599 636.241,414.932 636.5,418.5C 634.833,418.5 633.167,418.5 631.5,418.5C 631.5,419.5 631.5,420.5 631.5,421.5C 633.226,421.185 634.893,421.019 636.5,421C 629.756,423.715 627.756,421.548 630.5,414.5 Z"/></g>
<g><path style="opacity:1" fill="#3f291c" d="M 631.5,415.5 C 632.756,415.461 633.756,415.961 634.5,417C 633.167,417.667 631.833,417.667 630.5,417C 631.056,416.617 631.389,416.117 631.5,415.5 Z"/></g>
<g><path style="opacity:1" fill="#e1e8e4" d="M 453.5,421.5 C 453.281,420.325 453.614,419.325 454.5,418.5C 455.931,418.023 457.264,417.357 458.5,416.5C 457.349,415.269 456.183,415.269 455,416.5C 454.833,416.167 454.667,415.833 454.5,415.5C 456.353,414.24 458.186,414.24 460,415.5C 460.497,417.81 460.663,420.143 460.5,422.5C 458.05,422.702 455.717,422.369 453.5,421.5 Z"/></g>
<g><path style="opacity:1" fill="#3c282b" d="M 456.5,418.5 C 458.048,418.821 458.715,419.821 458.5,421.5C 455.752,421.598 455.086,420.598 456.5,418.5 Z"/></g>
<g><path style="opacity:1" fill="#e0ebe7" d="M 585.5,414.5 C 587.144,414.286 588.644,414.62 590,415.5C 590.497,417.81 590.663,420.143 590.5,422.5C 588.5,422.5 586.5,422.5 584.5,422.5C 583.843,419.159 585.176,417.159 588.5,416.5C 587.726,415.289 586.893,415.289 586,416.5C 585.536,415.906 585.369,415.239 585.5,414.5 Z"/></g>
<g><path style="opacity:1" fill="#4c292b" d="M 586.5,418.5 C 588.048,418.821 588.715,419.821 588.5,421.5C 585.752,421.598 585.086,420.598 586.5,418.5 Z"/></g>
<g><path style="opacity:1" fill="#c7d8d8" d="M 595.5,415.5 C 598.657,413.725 600.324,414.725 600.5,418.5C 600.43,419.772 600.097,420.938 599.5,422C 597.866,422.494 596.199,422.66 594.5,422.5C 594.762,423.978 594.429,425.311 593.5,426.5C 592.167,422.5 592.167,418.5 593.5,414.5C 594.183,414.863 594.85,415.196 595.5,415.5 Z"/></g>
<g><path style="opacity:1" fill="#402521" d="M 595.5,415.5 C 596.5,415.5 597.5,415.5 598.5,415.5C 598.949,417.977 598.283,419.977 596.5,421.5C 594.261,419.867 593.928,417.867 595.5,415.5 Z"/></g>
<g><path style="opacity:1" fill="#e1e8e4" d="M 759.5,421.5 C 759.281,420.325 759.614,419.325 760.5,418.5C 761.931,418.023 763.264,417.357 764.5,416.5C 763.349,415.269 762.183,415.269 761,416.5C 760.833,416.167 760.667,415.833 760.5,415.5C 762.353,414.24 764.186,414.24 766,415.5C 766.497,417.81 766.663,420.143 766.5,422.5C 764.05,422.702 761.717,422.369 759.5,421.5 Z"/></g>
<g><path style="opacity:1" fill="#3c282b" d="M 762.5,418.5 C 764.048,418.821 764.715,419.821 764.5,421.5C 761.752,421.598 761.086,420.598 762.5,418.5 Z"/></g>
<g><path style="opacity:1" fill="#8c8d8c" d="M 437.5,436.5 C 551.502,436.167 665.502,436.5 779.5,437.5C 722.5,437.833 665.5,438.167 608.5,438.5C 551.163,438.5 494.163,437.833 437.5,436.5 Z"/></g>
<g><path style="opacity:1" fill="#323131" d="M 771.5,494.5 C 662.833,494.5 554.167,494.5 445.5,494.5C 445.5,478.5 445.5,462.5 445.5,446.5C 554.167,446.5 662.833,446.5 771.5,446.5C 771.5,462.5 771.5,478.5 771.5,494.5 Z"/></g>
<g><path style="opacity:1" fill="#eeddbb" d="M 465.5,475.5 C 463.735,476.461 461.735,476.795 459.5,476.5C 459.177,472.774 459.511,469.107 460.5,465.5C 461.487,468.768 461.82,472.102 461.5,475.5C 462.833,475.5 464.167,475.5 465.5,475.5 Z"/></g>
<g><path style="opacity:1" fill="#e6e2cf" d="M 566.5,465.5 C 572.156,465.867 573.989,468.867 572,474.5C 569.667,477.167 567.333,477.167 565,474.5C 564.068,471.177 564.568,468.177 566.5,465.5 Z"/></g>
<g><path style="opacity:1" fill="#e6e2cf" d="M 578.5,465.5 C 584.156,465.867 585.989,468.867 584,474.5C 581.667,477.167 579.333,477.167 577,474.5C 576.068,471.177 576.568,468.177 578.5,465.5 Z"/></g>
<g><path style="opacity:1" fill="#e0e9df" d="M 618.5,465.5 C 623.667,464.492 625.334,466.325 623.5,471C 626.167,472.667 626.167,474.333 623.5,476C 621.741,476.798 620.074,476.631 618.5,475.5C 619.848,475.55 621.348,475.217 623,474.5C 623.271,472.193 622.105,471.026 619.5,471C 620.448,470.517 621.448,470.351 622.5,470.5C 622.5,469.167 622.5,467.833 622.5,466.5C 621.178,466.33 620.011,466.663 619,467.5C 618.536,466.906 618.369,466.239 618.5,465.5 Z"/></g>
<g><path style="opacity:1" fill="#deddd0" d="M 743.5,465.5 C 749.262,464.724 750.595,466.558 747.5,471C 749.283,472.067 749.783,473.567 749,475.5C 746.861,476.769 744.695,476.769 742.5,475.5C 744.003,474.948 745.669,474.948 747.5,475.5C 747.78,472.612 746.447,471.112 743.5,471C 747.508,470.51 748.175,469.01 745.5,466.5C 744.056,467.981 743.389,467.648 743.5,465.5 Z"/></g>
<g><path style="opacity:1" fill="#cde5de" d="M 495.5,465.5 C 496.808,469.019 496.808,472.685 495.5,476.5C 494.953,473.298 493.953,470.298 492.5,467.5C 493.602,466.824 494.602,466.158 495.5,465.5 Z"/></g>
<g><path style="opacity:1" fill="#3f3448" d="M 567.5,466.5 C 569.89,466.685 570.89,468.018 570.5,470.5C 569.32,476.895 567.986,477.062 566.5,471C 566.605,469.408 566.939,467.908 567.5,466.5 Z"/></g>
<g><path style="opacity:1" fill="#3f3448" d="M 579.5,466.5 C 581.89,466.685 582.89,468.018 582.5,470.5C 581.32,476.895 579.986,477.062 578.5,471C 578.605,469.408 578.939,467.908 579.5,466.5 Z"/></g>
<g><path style="opacity:1" fill="#d3e1e5" d="M 609.5,465.5 C 610.787,466.871 611.453,468.705 611.5,471C 611.167,472.833 610.833,474.667 610.5,476.5C 609.679,473.553 609.179,470.553 609,467.5C 608.282,468.451 607.449,468.617 606.5,468C 607.571,467.148 608.571,466.315 609.5,465.5 Z"/></g>
<g><path style="opacity:1" fill="#e9d9b8" d="M 734.5,465.5 C 735.787,466.871 736.453,468.705 736.5,471C 736.167,472.833 735.833,474.667 735.5,476.5C 734.679,473.553 734.179,470.553 734,467.5C 733.107,468.711 732.274,468.711 731.5,467.5C 732.602,466.824 733.602,466.158 734.5,465.5 Z"/></g>
<g><path style="opacity:1" fill="#dce3e0" d="M 474.5,468.5 C 477.119,468.232 479.619,468.565 482,469.5C 483.328,474.338 481.494,476.671 476.5,476.5C 476.762,477.978 476.429,479.311 475.5,480.5C 474.509,476.555 474.176,472.555 474.5,468.5 Z"/></g>
<g><path style="opacity:1" fill="#e7ebdc" d="M 483.5,468.5 C 485.337,468.639 485.67,469.306 484.5,470.5C 483.702,470.043 483.369,469.376 483.5,468.5 Z"/></g>
<g><path style="opacity:1" fill="#efdbb3" d="M 573.5,468.5 C 575.337,468.639 575.67,469.306 574.5,470.5C 573.702,470.043 573.369,469.376 573.5,468.5 Z"/></g>
<g><path style="opacity:1" fill="#ebca7a" d="M 594.5,468.5 C 596.337,468.639 596.67,469.306 595.5,470.5C 594.702,470.043 594.369,469.376 594.5,468.5 Z"/></g>
<g><path style="opacity:1" fill="#ddece5" d="M 614.5,468.5 C 616.337,468.639 616.67,469.306 615.5,470.5C 614.702,470.043 614.369,469.376 614.5,468.5 Z"/></g>
<g><path style="opacity:1" fill="#ddece5" d="M 697.5,468.5 C 699.337,468.639 699.67,469.306 698.5,470.5C 697.702,470.043 697.369,469.376 697.5,468.5 Z"/></g>
<g><path style="opacity:1" fill="#e7ebdc" d="M 718.5,468.5 C 720.337,468.639 720.67,469.306 719.5,470.5C 718.702,470.043 718.369,469.376 718.5,468.5 Z"/></g>
<g><path style="opacity:1" fill="#efdbb3" d="M 739.5,468.5 C 741.337,468.639 741.67,469.306 740.5,470.5C 739.702,470.043 739.369,469.376 739.5,468.5 Z"/></g>
<g><path style="opacity:1" fill="#38313a" d="M 477.5,469.5 C 479.484,469.484 480.484,470.484 480.5,472.5C 479.167,476.5 477.833,476.5 476.5,472.5C 476.685,471.416 477.018,470.416 477.5,469.5 Z"/></g>
<g><path style="opacity:1" fill="#dce2da" d="M 557.5,465.5 C 559.467,465.261 561.301,465.594 563,466.5C 564.004,469.993 563.504,473.159 561.5,476C 559.299,476.825 557.466,476.325 556,474.5C 555.207,471.259 555.707,468.259 557.5,465.5 Z"/></g>
<g><path style="opacity:1" fill="#4f3637" d="M 558.5,466.5 C 560.95,466.874 561.95,468.374 561.5,471C 561.691,472.973 561.024,474.473 559.5,475.5C 557.215,472.822 556.882,469.822 558.5,466.5 Z"/></g>
<g><path style="opacity:1" fill="#e1dbc0" d="M 587.5,465.5 C 592.989,465.504 594.822,468.171 593,473.5C 591.419,476.553 589.086,477.22 586,475.5C 585.037,471.851 585.537,468.518 587.5,465.5 Z"/></g>
<g><path style="opacity:1" fill="#3c374c" d="M 588.5,466.5 C 590.722,466.559 591.722,467.725 591.5,470C 591.327,472.021 590.66,473.854 589.5,475.5C 587.215,472.822 586.882,469.822 588.5,466.5 Z"/></g>
<g><path style="opacity:1" fill="#e1dbc0" d="M 599.5,465.5 C 604.989,465.504 606.822,468.171 605,473.5C 603.419,476.553 601.086,477.22 598,475.5C 597.037,471.851 597.537,468.518 599.5,465.5 Z"/></g>
<g><path style="opacity:1" fill="#3c374c" d="M 600.5,466.5 C 602.722,466.559 603.722,467.725 603.5,470C 603.327,472.021 602.66,473.854 601.5,475.5C 599.215,472.822 598.882,469.822 600.5,466.5 Z"/></g>
<g><path style="opacity:1" fill="#dce2da" d="M 711.5,465.5 C 713.467,465.261 715.301,465.594 717,466.5C 718.004,469.993 717.504,473.159 715.5,476C 713.299,476.825 711.466,476.325 710,474.5C 709.207,471.259 709.707,468.259 711.5,465.5 Z"/></g>
<g><path style="opacity:1" fill="#4f3637" d="M 712.5,466.5 C 714.95,466.874 715.95,468.374 715.5,471C 715.691,472.973 715.024,474.473 713.5,475.5C 711.215,472.822 710.882,469.822 712.5,466.5 Z"/></g>
<g><path style="opacity:1" fill="#dce2da" d="M 723.5,465.5 C 725.467,465.261 727.301,465.594 729,466.5C 730.004,469.993 729.504,473.159 727.5,476C 725.299,476.825 723.466,476.325 722,474.5C 721.207,471.259 721.707,468.259 723.5,465.5 Z"/></g>
<g><path style="opacity:1" fill="#4f3637" d="M 724.5,466.5 C 726.95,466.874 727.95,468.374 727.5,471C 727.691,472.973 727.024,474.473 725.5,475.5C 723.215,472.822 722.882,469.822 724.5,466.5 Z"/></g>
<g><path style="opacity:1" fill="#f0f6e3" d="M 549.5,468.5 C 550.404,469.209 550.737,470.209 550.5,471.5C 555.833,471.833 555.833,472.167 550.5,472.5C 550.167,476.5 549.833,476.5 549.5,472.5C 545.5,472.167 545.5,471.833 549.5,471.5C 549.5,470.5 549.5,469.5 549.5,468.5 Z"/></g>
<g><path style="opacity:1" fill="#ddd7cd" d="M 630.5,465.5 C 631.5,465.5 632.5,465.5 633.5,465.5C 633.232,468.119 633.565,470.619 634.5,473C 633.929,474.205 633.262,475.372 632.5,476.5C 631.614,475.675 631.281,474.675 631.5,473.5C 629.712,473.785 628.045,473.452 626.5,472.5C 628.616,470.6 629.949,468.267 630.5,465.5 Z"/></g>
<g><path style="opacity:1" fill="#d9d8d1" d="M 755.5,465.5 C 756.906,467.838 758.239,470.338 759.5,473C 758.23,473.9 757.23,475.066 756.5,476.5C 755.614,475.675 755.281,474.675 755.5,473.5C 753.712,473.785 752.045,473.452 750.5,472.5C 752.422,470.313 754.088,467.98 755.5,465.5 Z"/></g>
<g><path style="opacity:1" fill="#e7ebdc" d="M 483.5,474.5 C 485.337,474.639 485.67,475.306 484.5,476.5C 483.702,476.043 483.369,475.376 483.5,474.5 Z"/></g>
<g><path style="opacity:1" fill="#efdbb3" d="M 573.5,474.5 C 575.337,474.639 575.67,475.306 574.5,476.5C 573.702,476.043 573.369,475.376 573.5,474.5 Z"/></g>
<g><path style="opacity:1" fill="#ebca7a" d="M 594.5,474.5 C 596.337,474.639 596.67,475.306 595.5,476.5C 594.702,476.043 594.369,475.376 594.5,474.5 Z"/></g>
<g><path style="opacity:1" fill="#ddece5" d="M 614.5,474.5 C 616.337,474.639 616.67,475.306 615.5,476.5C 614.702,476.043 614.369,475.376 614.5,474.5 Z"/></g>
<g><path style="opacity:1" fill="#ddece5" d="M 697.5,474.5 C 699.337,474.639 699.67,475.306 698.5,476.5C 697.702,476.043 697.369,475.376 697.5,474.5 Z"/></g>
<g><path style="opacity:1" fill="#e7ebdc" d="M 718.5,474.5 C 720.337,474.639 720.67,475.306 719.5,476.5C 718.702,476.043 718.369,475.376 718.5,474.5 Z"/></g>
<g><path style="opacity:1" fill="#efdbb3" d="M 739.5,474.5 C 741.337,474.639 741.67,475.306 740.5,476.5C 739.702,476.043 739.369,475.376 739.5,474.5 Z"/></g>
<g><path style="opacity:1" fill="#e3ebe7" d="M 465.5,475.5 C 465.281,474.325 465.614,473.325 466.5,472.5C 467.931,472.023 469.264,471.357 470.5,470.5C 469.349,469.269 468.183,469.269 467,470.5C 466.833,470.167 466.667,469.833 466.5,469.5C 468.353,468.24 470.186,468.24 472,469.5C 472.497,471.81 472.663,474.143 472.5,476.5C 470.05,476.702 467.717,476.369 465.5,475.5 Z"/></g>
<g><path style="opacity:1" fill="#4f3d40" d="M 468.5,472.5 C 470.048,472.821 470.715,473.821 470.5,475.5C 467.752,475.598 467.086,474.598 468.5,472.5 Z"/></g>
<g><path style="opacity:1" fill="#d3dcd5" d="M 682.5,465.5 C 684.827,465.247 686.827,465.914 688.5,467.5C 695.97,463.793 698.47,466.126 696,474.5C 693.034,477.265 690.367,476.932 688,473.5C 686.695,476.306 684.528,477.14 681.5,476C 679.988,472.276 680.321,468.776 682.5,465.5 Z"/></g>
<g><path style="opacity:1" fill="#503b33" d="M 692.5,466.5 C 694.026,467.492 694.693,468.992 694.5,471C 694.691,472.973 694.024,474.473 692.5,475.5C 690.976,474.473 690.309,472.973 690.5,471C 690.759,469.213 691.425,467.713 692.5,466.5 Z"/></g>
<g><path style="opacity:1" fill="#3c374c" d="M 683.5,466.5 C 685.722,466.559 686.722,467.725 686.5,470C 686.327,472.021 685.66,473.854 684.5,475.5C 682.215,472.822 681.882,469.822 683.5,466.5 Z"/></g>
<g><path style="opacity:1" fill="#cbdddf" d="M 702.5,465.5 C 704.467,465.261 706.301,465.594 708,466.5C 709.004,469.993 708.504,473.159 706.5,476C 704.299,476.825 702.466,476.325 701,474.5C 700.068,471.177 700.568,468.177 702.5,465.5 Z"/></g>
<g><path style="opacity:1" fill="#503b33" d="M 704.5,466.5 C 706.026,467.492 706.693,468.992 706.5,471C 706.691,472.973 706.024,474.473 704.5,475.5C 702.976,474.473 702.309,472.973 702.5,471C 702.759,469.213 703.425,467.713 704.5,466.5 Z"/></g>
<g><path style="opacity:1" fill="#979897" d="M 445.5,494.5 C 554.167,494.5 662.833,494.5 771.5,494.5C 717.504,495.833 663.171,496.5 608.5,496.5C 553.829,496.5 499.496,495.833 445.5,494.5 Z"/></g>
<g><path style="opacity:1" fill="#313131" d="M 771.5,560.5 C 662.833,560.5 554.167,560.5 445.5,560.5C 445.5,544.5 445.5,528.5 445.5,512.5C 554.167,512.5 662.833,512.5 771.5,512.5C 771.5,528.5 771.5,544.5 771.5,560.5 Z"/></g>
<g><path style="opacity:1" fill="#eeddbb" d="M 465.5,541.5 C 463.735,542.461 461.735,542.795 459.5,542.5C 459.177,538.774 459.511,535.107 460.5,531.5C 461.487,534.768 461.82,538.102 461.5,541.5C 462.833,541.5 464.167,541.5 465.5,541.5 Z"/></g>
<g><path style="opacity:1" fill="#e6e2cf" d="M 566.5,531.5 C 572.156,531.867 573.989,534.867 572,540.5C 569.667,543.167 567.333,543.167 565,540.5C 564.068,537.177 564.568,534.177 566.5,531.5 Z"/></g>
<g><path style="opacity:1" fill="#e6e2cf" d="M 578.5,531.5 C 584.156,531.867 585.989,534.867 584,540.5C 581.667,543.167 579.333,543.167 577,540.5C 576.068,537.177 576.568,534.177 578.5,531.5 Z"/></g>
<g><path style="opacity:1" fill="#e0e9df" d="M 618.5,531.5 C 623.667,530.492 625.334,532.325 623.5,537C 626.167,538.667 626.167,540.333 623.5,542C 621.741,542.798 620.074,542.631 618.5,541.5C 619.848,541.55 621.348,541.217 623,540.5C 623.271,538.193 622.105,537.026 619.5,537C 620.448,536.517 621.448,536.351 622.5,536.5C 622.5,535.167 622.5,533.833 622.5,532.5C 621.178,532.33 620.011,532.663 619,533.5C 618.536,532.906 618.369,532.239 618.5,531.5 Z"/></g>
<g><path style="opacity:1" fill="#deddd0" d="M 743.5,531.5 C 749.262,530.724 750.595,532.558 747.5,537C 749.283,538.067 749.783,539.567 749,541.5C 746.861,542.769 744.695,542.769 742.5,541.5C 744.003,540.948 745.669,540.948 747.5,541.5C 747.78,538.612 746.447,537.112 743.5,537C 747.508,536.51 748.175,535.01 745.5,532.5C 744.056,533.981 743.389,533.648 743.5,531.5 Z"/></g>
<g><path style="opacity:1" fill="#3f3448" d="M 567.5,532.5 C 569.89,532.685 570.89,534.018 570.5,536.5C 569.32,542.895 567.986,543.062 566.5,537C 566.605,535.408 566.939,533.908 567.5,532.5 Z"/></g>
<g><path style="opacity:1" fill="#3f3448" d="M 579.5,532.5 C 581.89,532.685 582.89,534.018 582.5,536.5C 581.32,542.895 579.986,543.062 578.5,537C 578.605,535.408 578.939,533.908 579.5,532.5 Z"/></g>
<g><path style="opacity:1" fill="#d3e1e5" d="M 609.5,531.5 C 610.787,532.871 611.453,534.705 611.5,537C 611.167,538.833 610.833,540.667 610.5,542.5C 609.679,539.553 609.179,536.553 609,533.5C 608.282,534.451 607.449,534.617 606.5,534C 607.571,533.148 608.571,532.315 609.5,531.5 Z"/></g>
<g><path style="opacity:1" fill="#e9d9b8" d="M 734.5,531.5 C 735.787,532.871 736.453,534.705 736.5,537C 736.167,538.833 735.833,540.667 735.5,542.5C 734.679,539.553 734.179,536.553 734,533.5C 733.107,534.711 732.274,534.711 731.5,533.5C 732.602,532.824 733.602,532.158 734.5,531.5 Z"/></g>
<g><path style="opacity:1" fill="#dce3e0" d="M 474.5,534.5 C 477.119,534.232 479.619,534.565 482,535.5C 483.328,540.338 481.494,542.671 476.5,542.5C 476.762,543.978 476.429,545.311 475.5,546.5C 474.509,542.555 474.176,538.555 474.5,534.5 Z"/></g>
<g><path style="opacity:1" fill="#e7ebdc" d="M 483.5,534.5 C 485.337,534.639 485.67,535.306 484.5,536.5C 483.702,536.043 483.369,535.376 483.5,534.5 Z"/></g>
<g><path style="opacity:1" fill="#efdbb3" d="M 573.5,534.5 C 575.337,534.639 575.67,535.306 574.5,536.5C 573.702,536.043 573.369,535.376 573.5,534.5 Z"/></g>
<g><path style="opacity:1" fill="#ebca7a" d="M 594.5,534.5 C 596.337,534.639 596.67,535.306 595.5,536.5C 594.702,536.043 594.369,535.376 594.5,534.5 Z"/></g>
<g><path style="opacity:1" fill="#ddece5" d="M 614.5,534.5 C 616.337,534.639 616.67,535.306 615.5,536.5C 614.702,536.043 614.369,535.376 614.5,534.5 Z"/></g>
<g><path style="opacity:1" fill="#ddece5" d="M 697.5,534.5 C 699.337,534.639 699.67,535.306 698.5,536.5C 697.702,536.043 697.369,535.376 697.5,534.5 Z"/></g>
<g><path style="opacity:1" fill="#e7ebdc" d="M 718.5,534.5 C 720.337,534.639 720.67,535.306 719.5,536.5C 718.702,536.043 718.369,535.376 718.5,534.5 Z"/></g>
<g><path style="opacity:1" fill="#efdbb3" d="M 739.5,534.5 C 741.337,534.639 741.67,535.306 740.5,536.5C 739.702,536.043 739.369,535.376 739.5,534.5 Z"/></g>
<g><path style="opacity:1" fill="#38313a" d="M 477.5,535.5 C 479.484,535.484 480.484,536.484 480.5,538.5C 479.167,542.5 477.833,542.5 476.5,538.5C 476.685,537.416 477.018,536.416 477.5,535.5 Z"/></g>
<g><path style="opacity:1" fill="#dce2da" d="M 557.5,531.5 C 559.467,531.261 561.301,531.594 563,532.5C 564.004,535.993 563.504,539.159 561.5,542C 559.299,542.825 557.466,542.325 556,540.5C 555.207,537.259 555.707,534.259 557.5,531.5 Z"/></g>
<g><path style="opacity:1" fill="#4f3637" d="M 558.5,532.5 C 560.95,532.874 561.95,534.374 561.5,537C 561.691,538.973 561.024,540.473 559.5,541.5C 557.215,538.822 556.882,535.822 558.5,532.5 Z"/></g>
<g><path style="opacity:1" fill="#e1dbc0" d="M 587.5,531.5 C 592.989,531.504 594.822,534.171 593,539.5C 591.419,542.553 589.086,543.22 586,541.5C 585.037,537.851 585.537,534.518 587.5,531.5 Z"/></g>
<g><path style="opacity:1" fill="#3c374c" d="M 588.5,532.5 C 590.722,532.559 591.722,533.725 591.5,536C 591.327,538.021 590.66,539.854 589.5,541.5C 587.215,538.822 586.882,535.822 588.5,532.5 Z"/></g>
<g><path style="opacity:1" fill="#e1dbc0" d="M 599.5,531.5 C 604.989,531.504 606.822,534.171 605,539.5C 603.419,542.553 601.086,543.22 598,541.5C 597.037,537.851 597.537,534.518 599.5,531.5 Z"/></g>
<g><path style="opacity:1" fill="#3c374c" d="M 600.5,532.5 C 602.722,532.559 603.722,533.725 603.5,536C 603.327,538.021 602.66,539.854 601.5,541.5C 599.215,538.822 598.882,535.822 600.5,532.5 Z"/></g>
<g><path style="opacity:1" fill="#dce2da" d="M 711.5,531.5 C 713.467,531.261 715.301,531.594 717,532.5C 718.004,535.993 717.504,539.159 715.5,542C 713.299,542.825 711.466,542.325 710,540.5C 709.207,537.259 709.707,534.259 711.5,531.5 Z"/></g>
<g><path style="opacity:1" fill="#4f3637" d="M 712.5,532.5 C 714.95,532.874 715.95,534.374 715.5,537C 715.691,538.973 715.024,540.473 713.5,541.5C 711.215,538.822 710.882,535.822 712.5,532.5 Z"/></g>
<g><path style="opacity:1" fill="#dce2da" d="M 723.5,531.5 C 725.467,531.261 727.301,531.594 729,532.5C 730.004,535.993 729.504,539.159 727.5,542C 725.299,542.825 723.466,542.325 722,540.5C 721.207,537.259 721.707,534.259 723.5,531.5 Z"/></g>
<g><path style="opacity:1" fill="#4f3637" d="M 724.5,532.5 C 726.95,532.874 727.95,534.374 727.5,537C 727.691,538.973 727.024,540.473 725.5,541.5C 723.215,538.822 722.882,535.822 724.5,532.5 Z"/></g>
<g><path style="opacity:1" fill="#e9e4d0" d="M 492.5,531.5 C 494.199,531.34 495.866,531.506 497.5,532C 498.059,532.725 498.392,533.558 498.5,534.5C 497.441,537.068 495.774,539.235 493.5,541C 495.5,541.333 497.5,541.667 499.5,542C 496.854,542.497 494.187,542.664 491.5,542.5C 491.351,541.448 491.517,540.448 492,539.5C 495.349,538.323 496.849,535.99 496.5,532.5C 495.178,532.33 494.011,532.663 493,533.5C 492.536,532.906 492.369,532.239 492.5,531.5 Z"/></g>
<g><path style="opacity:1" fill="#f0f6e3" d="M 549.5,534.5 C 550.404,535.209 550.737,536.209 550.5,537.5C 555.833,537.833 555.833,538.167 550.5,538.5C 550.167,542.5 549.833,542.5 549.5,538.5C 545.5,538.167 545.5,537.833 549.5,537.5C 549.5,536.5 549.5,535.5 549.5,534.5 Z"/></g>
<g><path style="opacity:1" fill="#ddd7cd" d="M 630.5,531.5 C 631.5,531.5 632.5,531.5 633.5,531.5C 633.232,534.119 633.565,536.619 634.5,539C 633.929,540.205 633.262,541.372 632.5,542.5C 631.614,541.675 631.281,540.675 631.5,539.5C 629.712,539.785 628.045,539.452 626.5,538.5C 628.616,536.6 629.949,534.267 630.5,531.5 Z"/></g>
<g><path style="opacity:1" fill="#d9d8d1" d="M 755.5,531.5 C 756.906,533.838 758.239,536.338 759.5,539C 758.23,539.9 757.23,541.066 756.5,542.5C 755.614,541.675 755.281,540.675 755.5,539.5C 753.712,539.785 752.045,539.452 750.5,538.5C 752.422,536.313 754.088,533.98 755.5,531.5 Z"/></g>
<g><path style="opacity:1" fill="#e7ebdc" d="M 483.5,540.5 C 485.337,540.639 485.67,541.306 484.5,542.5C 483.702,542.043 483.369,541.376 483.5,540.5 Z"/></g>
<g><path style="opacity:1" fill="#efdbb3" d="M 573.5,540.5 C 575.337,540.639 575.67,541.306 574.5,542.5C 573.702,542.043 573.369,541.376 573.5,540.5 Z"/></g>
<g><path style="opacity:1" fill="#ebca7a" d="M 594.5,540.5 C 596.337,540.639 596.67,541.306 595.5,542.5C 594.702,542.043 594.369,541.376 594.5,540.5 Z"/></g>
<g><path style="opacity:1" fill="#ddece5" d="M 614.5,540.5 C 616.337,540.639 616.67,541.306 615.5,542.5C 614.702,542.043 614.369,541.376 614.5,540.5 Z"/></g>
<g><path style="opacity:1" fill="#ddece5" d="M 697.5,540.5 C 699.337,540.639 699.67,541.306 698.5,542.5C 697.702,542.043 697.369,541.376 697.5,540.5 Z"/></g>
<g><path style="opacity:1" fill="#e7ebdc" d="M 718.5,540.5 C 720.337,540.639 720.67,541.306 719.5,542.5C 718.702,542.043 718.369,541.376 718.5,540.5 Z"/></g>
<g><path style="opacity:1" fill="#efdbb3" d="M 739.5,540.5 C 741.337,540.639 741.67,541.306 740.5,542.5C 739.702,542.043 739.369,541.376 739.5,540.5 Z"/></g>
<g><path style="opacity:1" fill="#e3ebe7" d="M 465.5,541.5 C 465.281,540.325 465.614,539.325 466.5,538.5C 467.931,538.023 469.264,537.357 470.5,536.5C 469.349,535.269 468.183,535.269 467,536.5C 466.833,536.167 466.667,535.833 466.5,535.5C 468.353,534.24 470.186,534.24 472,535.5C 472.497,537.81 472.663,540.143 472.5,542.5C 470.05,542.702 467.717,542.369 465.5,541.5 Z"/></g>
<g><path style="opacity:1" fill="#4f3d40" d="M 468.5,538.5 C 470.048,538.821 470.715,539.821 470.5,541.5C 467.752,541.598 467.086,540.598 468.5,538.5 Z"/></g>
<g><path style="opacity:1" fill="#d3dcd5" d="M 682.5,531.5 C 684.827,531.247 686.827,531.914 688.5,533.5C 695.97,529.793 698.47,532.126 696,540.5C 693.034,543.265 690.367,542.932 688,539.5C 686.695,542.306 684.528,543.14 681.5,542C 679.988,538.276 680.321,534.776 682.5,531.5 Z"/></g>
<g><path style="opacity:1" fill="#503b33" d="M 692.5,532.5 C 694.026,533.492 694.693,534.992 694.5,537C 694.691,538.973 694.024,540.473 692.5,541.5C 690.976,540.473 690.309,538.973 690.5,537C 690.759,535.213 691.425,533.713 692.5,532.5 Z"/></g>
<g><path style="opacity:1" fill="#3c374c" d="M 683.5,532.5 C 685.722,532.559 686.722,533.725 686.5,536C 686.327,538.021 685.66,539.854 684.5,541.5C 682.215,538.822 681.882,535.822 683.5,532.5 Z"/></g>
<g><path style="opacity:1" fill="#cbdddf" d="M 702.5,531.5 C 704.467,531.261 706.301,531.594 708,532.5C 709.004,535.993 708.504,539.159 706.5,542C 704.299,542.825 702.466,542.325 701,540.5C 700.068,537.177 700.568,534.177 702.5,531.5 Z"/></g>
<g><path style="opacity:1" fill="#503b33" d="M 704.5,532.5 C 706.026,533.492 706.693,534.992 706.5,537C 706.691,538.973 706.024,540.473 704.5,541.5C 702.976,540.473 702.309,538.973 702.5,537C 702.759,535.213 703.425,533.713 704.5,532.5 Z"/></g>
<g><path style="opacity:1" fill="#979897" d="M 445.5,560.5 C 554.167,560.5 662.833,560.5 771.5,560.5C 717.504,561.833 663.171,562.5 608.5,562.5C 553.829,562.5 499.496,561.833 445.5,560.5 Z"/></g>
</svg>
